STARTFONT 2.1
COMMENT Created using gbdfed
FONT -t-vanilla-Medium-R-Normal--11-100-75-75-M-100-ISO8859-1
SIZE 10 75 75
FONTBOUNDINGBOX 6 11 0 -2
STARTPROPERTIES 13
POINT_SIZE 100
PIXEL_SIZE 11
RESOLUTION_X 75
RESOLUTION_Y 75
FONT_ASCENT 9
FONT_DESCENT 2
AVERAGE_WIDTH 100
SPACING "M"
_GBDFED_INFO "Edited with gbdfed 1.6."
FAMILY_NAME "vanilla"
FOUNDRY "t"
CHARSET_REGISTRY "ISO8859"
CHARSET_ENCODING "1"
ENDPROPERTIES
CHARS 144
STARTCHAR char11
ENCODING 11
SWIDTH 576 0
DWIDTH 6 0
BBX 3 6 0 3
BITMAP
20
20
20
20
20
E0
ENDCHAR
STARTCHAR char12
ENCODING 12
SWIDTH 576 0
DWIDTH 6 0
BBX 3 6 0 -2
BITMAP
E0
20
20
20
20
20
ENDCHAR
STARTCHAR char13
ENCODING 13
SWIDTH 576 0
DWIDTH 6 0
BBX 6 6 0 -2
BITMAP
3C
20
20
20
20
20
ENDCHAR
STARTCHAR char14
ENCODING 14
SWIDTH 576 0
DWIDTH 6 0
BBX 4 6 2 3
BITMAP
80
80
80
80
80
F0
ENDCHAR
STARTCHAR char15
ENCODING 15
SWIDTH 576 0
DWIDTH 6 0
BBX 6 11 0 -2
BITMAP
20
20
20
20
20
FC
20
20
20
20
20
ENDCHAR
STARTCHAR char16
ENCODING 16
SWIDTH 576 0
DWIDTH 6 0
BBX 6 1 0 7
BITMAP
FC
ENDCHAR
STARTCHAR char17
ENCODING 17
SWIDTH 576 0
DWIDTH 6 0
BBX 6 1 0 5
BITMAP
FC
ENDCHAR
STARTCHAR char18
ENCODING 18
SWIDTH 576 0
DWIDTH 6 0
BBX 6 1 0 3
BITMAP
FC
ENDCHAR
STARTCHAR char19
ENCODING 19
SWIDTH 576 0
DWIDTH 6 0
BBX 6 1 0 1
BITMAP
FC
ENDCHAR
STARTCHAR char20
ENCODING 20
SWIDTH 576 0
DWIDTH 6 0
BBX 6 1 0 -1
BITMAP
FC
ENDCHAR
STARTCHAR char21
ENCODING 21
SWIDTH 576 0
DWIDTH 6 0
BBX 6 11 0 -2
BITMAP
20
20
20
20
20
3C
20
20
20
20
20
ENDCHAR
STARTCHAR char22
ENCODING 22
SWIDTH 576 0
DWIDTH 6 0
BBX 3 11 0 -2
BITMAP
20
20
20
20
20
E0
20
20
20
20
20
ENDCHAR
STARTCHAR char23
ENCODING 23
SWIDTH 576 0
DWIDTH 6 0
BBX 6 6 0 3
BITMAP
20
20
20
20
20
FC
ENDCHAR
STARTCHAR char24
ENCODING 24
SWIDTH 576 0
DWIDTH 6 0
BBX 6 6 0 -2
BITMAP
FC
20
20
20
20
20
ENDCHAR
STARTCHAR char25
ENCODING 25
SWIDTH 576 0
DWIDTH 6 0
BBX 3 11 0 -2
BITMAP
20
20
20
20
20
20
20
20
20
20
20
ENDCHAR
STARTCHAR char32
ENCODING 32
SWIDTH 576 0
DWIDTH 6 0
BBX 0 0 0 0
BITMAP
ENDCHAR
STARTCHAR char33
ENCODING 33
SWIDTH 576 0
DWIDTH 6 0
BBX 3 8 0 0
BITMAP
20
20
20
20
20
00
20
20
ENDCHAR
STARTCHAR char34
ENCODING 34
SWIDTH 576 0
DWIDTH 6 0
BBX 3 3 1 5
BITMAP
A0
A0
A0
ENDCHAR
STARTCHAR char35
ENCODING 35
SWIDTH 576 0
DWIDTH 6 0
BBX 5 8 0 0
BITMAP
50
50
F8
50
50
F8
50
50
ENDCHAR
STARTCHAR char36
ENCODING 36
SWIDTH 576 0
DWIDTH 6 0
BBX 5 9 0 -1
BITMAP
20
70
A8
A0
70
28
A8
70
20
ENDCHAR
STARTCHAR char37
ENCODING 37
SWIDTH 576 0
DWIDTH 6 0
BBX 6 8 0 0
BITMAP
48
A8
50
10
20
28
54
48
ENDCHAR
STARTCHAR char38
ENCODING 38
SWIDTH 576 0
DWIDTH 6 0
BBX 5 8 1 0
BITMAP
40
A0
A0
40
A8
90
90
68
ENDCHAR
STARTCHAR char39
ENCODING 39
SWIDTH 576 0
DWIDTH 6 0
BBX 3 3 1 5
BITMAP
60
40
80
ENDCHAR
STARTCHAR char40
ENCODING 40
SWIDTH 576 0
DWIDTH 6 0
BBX 3 9 1 -1
BITMAP
60
80
80
80
80
80
80
80
60
ENDCHAR
STARTCHAR char41
ENCODING 41
SWIDTH 576 0
DWIDTH 6 0
BBX 3 9 1 -1
BITMAP
C0
20
20
20
20
20
20
20
C0
ENDCHAR
STARTCHAR char42
ENCODING 42
SWIDTH 576 0
DWIDTH 6 0
BBX 5 5 0 1
BITMAP
50
20
F8
20
50
ENDCHAR
STARTCHAR char43
ENCODING 43
SWIDTH 576 0
DWIDTH 6 0
BBX 5 5 0 1
BITMAP
20
20
F8
20
20
ENDCHAR
STARTCHAR char44
ENCODING 44
SWIDTH 576 0
DWIDTH 6 0
BBX 3 4 1 -2
BITMAP
60
60
40
80
ENDCHAR
STARTCHAR char45
ENCODING 45
SWIDTH 576 0
DWIDTH 6 0
BBX 5 1 0 3
BITMAP
F8
ENDCHAR
STARTCHAR char46
ENCODING 46
SWIDTH 576 0
DWIDTH 6 0
BBX 4 2 0 0
BITMAP
30
30
ENDCHAR
STARTCHAR char47
ENCODING 47
SWIDTH 576 0
DWIDTH 6 0
BBX 4 8 1 0
BITMAP
10
10
20
20
40
40
80
80
ENDCHAR
STARTCHAR char48
ENCODING 48
SWIDTH 576 0
DWIDTH 6 0
BBX 4 8 1 0
BITMAP
60
90
90
B0
D0
90
90
60
ENDCHAR
STARTCHAR char49
ENCODING 49
SWIDTH 576 0
DWIDTH 6 0
BBX 3 8 1 0
BITMAP
40
C0
40
40
40
40
40
E0
ENDCHAR
STARTCHAR char50
ENCODING 50
SWIDTH 576 0
DWIDTH 6 0
BBX 4 8 1 0
BITMAP
60
90
90
10
20
40
80
F0
ENDCHAR
STARTCHAR char51
ENCODING 51
SWIDTH 576 0
DWIDTH 6 0
BBX 5 8 0 0
BITMAP
30
48
08
30
08
08
48
30
ENDCHAR
STARTCHAR char52
ENCODING 52
SWIDTH 576 0
DWIDTH 6 0
BBX 4 8 1 0
BITMAP
20
60
60
A0
A0
F0
20
20
ENDCHAR
STARTCHAR char53
ENCODING 53
SWIDTH 576 0
DWIDTH 6 0
BBX 4 8 1 0
BITMAP
F0
80
80
E0
10
10
90
60
ENDCHAR
STARTCHAR char54
ENCODING 54
SWIDTH 576 0
DWIDTH 6 0
BBX 4 8 1 0
BITMAP
60
90
80
E0
90
90
90
60
ENDCHAR
STARTCHAR char55
ENCODING 55
SWIDTH 576 0
DWIDTH 6 0
BBX 4 8 1 0
BITMAP
F0
10
10
20
20
40
40
40
ENDCHAR
STARTCHAR char56
ENCODING 56
SWIDTH 576 0
DWIDTH 6 0
BBX 5 8 0 0
BITMAP
30
48
48
30
48
48
48
30
ENDCHAR
STARTCHAR char57
ENCODING 57
SWIDTH 576 0
DWIDTH 6 0
BBX 4 8 1 0
BITMAP
60
90
90
90
70
10
90
60
ENDCHAR
STARTCHAR char58
ENCODING 58
SWIDTH 576 0
DWIDTH 6 0
BBX 2 5 2 0
BITMAP
C0
C0
00
C0
C0
ENDCHAR
STARTCHAR char59
ENCODING 59
SWIDTH 576 0
DWIDTH 6 0
BBX 3 7 1 -2
BITMAP
60
60
00
60
60
40
80
ENDCHAR
STARTCHAR char60
ENCODING 60
SWIDTH 576 0
DWIDTH 6 0
BBX 4 5 1 1
BITMAP
10
60
80
60
10
ENDCHAR
STARTCHAR char61
ENCODING 61
SWIDTH 576 0
DWIDTH 6 0
BBX 5 3 0 2
BITMAP
F8
00
F8
ENDCHAR
STARTCHAR char62
ENCODING 62
SWIDTH 576 0
DWIDTH 6 0
BBX 4 5 1 1
BITMAP
80
60
10
60
80
ENDCHAR
STARTCHAR char63
ENCODING 63
SWIDTH 576 0
DWIDTH 6 0
BBX 4 8 1 0
BITMAP
60
90
90
20
40
00
40
40
ENDCHAR
STARTCHAR char64
ENCODING 64
SWIDTH 576 0
DWIDTH 6 0
BBX 5 8 0 0
BITMAP
70
88
B8
A8
A8
98
80
78
ENDCHAR
STARTCHAR char65
ENCODING 65
SWIDTH 576 0
DWIDTH 6 0
BBX 4 8 1 0
BITMAP
60
60
90
90
F0
90
90
90
ENDCHAR
STARTCHAR char66
ENCODING 66
SWIDTH 576 0
DWIDTH 6 0
BBX 4 8 1 0
BITMAP
E0
90
90
E0
90
90
90
E0
ENDCHAR
STARTCHAR char67
ENCODING 67
SWIDTH 576 0
DWIDTH 6 0
BBX 4 8 1 0
BITMAP
60
90
80
80
80
80
90
60
ENDCHAR
STARTCHAR char68
ENCODING 68
SWIDTH 576 0
DWIDTH 6 0
BBX 4 8 1 0
BITMAP
E0
90
90
90
90
90
90
E0
ENDCHAR
STARTCHAR char69
ENCODING 69
SWIDTH 576 0
DWIDTH 6 0
BBX 4 8 1 0
BITMAP
F0
80
80
E0
80
80
80
F0
ENDCHAR
STARTCHAR char70
ENCODING 70
SWIDTH 576 0
DWIDTH 6 0
BBX 4 8 1 0
BITMAP
F0
80
80
E0
80
80
80
80
ENDCHAR
STARTCHAR char71
ENCODING 71
SWIDTH 576 0
DWIDTH 6 0
BBX 5 8 0 0
BITMAP
30
48
40
40
58
48
48
30
ENDCHAR
STARTCHAR char72
ENCODING 72
SWIDTH 576 0
DWIDTH 6 0
BBX 4 8 1 0
BITMAP
90
90
90
F0
90
90
90
90
ENDCHAR
STARTCHAR char73
ENCODING 73
SWIDTH 576 0
DWIDTH 6 0
BBX 4 8 0 0
BITMAP
70
20
20
20
20
20
20
70
ENDCHAR
STARTCHAR char74
ENCODING 74
SWIDTH 576 0
DWIDTH 6 0
BBX 4 7 1 0
BITMAP
70
10
10
10
10
90
60
ENDCHAR
STARTCHAR char75
ENCODING 75
SWIDTH 576 0
DWIDTH 6 0
BBX 4 8 1 0
BITMAP
90
90
A0
C0
A0
90
90
90
ENDCHAR
STARTCHAR char76
ENCODING 76
SWIDTH 576 0
DWIDTH 6 0
BBX 5 8 0 0
BITMAP
40
40
40
40
40
40
40
78
ENDCHAR
STARTCHAR char77
ENCODING 77
SWIDTH 576 0
DWIDTH 6 0
BBX 4 8 1 0
BITMAP
90
F0
F0
90
90
90
90
90
ENDCHAR
STARTCHAR char78
ENCODING 78
SWIDTH 576 0
DWIDTH 6 0
BBX 4 8 1 0
BITMAP
90
90
D0
D0
B0
B0
90
90
ENDCHAR
STARTCHAR char79
ENCODING 79
SWIDTH 576 0
DWIDTH 6 0
BBX 5 8 0 0
BITMAP
30
48
48
48
48
48
48
30
ENDCHAR
STARTCHAR char80
ENCODING 80
SWIDTH 576 0
DWIDTH 6 0
BBX 4 8 1 0
BITMAP
E0
90
90
E0
80
80
80
80
ENDCHAR
STARTCHAR char81
ENCODING 81
SWIDTH 576 0
DWIDTH 6 0
BBX 5 9 1 -1
BITMAP
60
90
90
90
90
90
B0
70
08
ENDCHAR
STARTCHAR char82
ENCODING 82
SWIDTH 576 0
DWIDTH 6 0
BBX 5 8 0 0
BITMAP
70
48
48
70
48
48
48
48
ENDCHAR
STARTCHAR char83
ENCODING 83
SWIDTH 576 0
DWIDTH 6 0
BBX 4 8 1 0
BITMAP
60
90
80
40
20
10
90
60
ENDCHAR
STARTCHAR char84
ENCODING 84
SWIDTH 576 0
DWIDTH 6 0
BBX 5 8 0 0
BITMAP
F8
20
20
20
20
20
20
20
ENDCHAR
STARTCHAR char85
ENCODING 85
SWIDTH 576 0
DWIDTH 6 0
BBX 5 8 0 0
BITMAP
48
48
48
48
48
48
48
30
ENDCHAR
STARTCHAR char86
ENCODING 86
SWIDTH 576 0
DWIDTH 6 0
BBX 5 8 0 0
BITMAP
48
48
48
48
48
48
30
30
ENDCHAR
STARTCHAR char87
ENCODING 87
SWIDTH 576 0
DWIDTH 6 0
BBX 4 8 1 0
BITMAP
90
90
90
90
90
F0
F0
90
ENDCHAR
STARTCHAR char88
ENCODING 88
SWIDTH 576 0
DWIDTH 6 0
BBX 4 8 1 0
BITMAP
90
90
90
60
60
90
90
90
ENDCHAR
STARTCHAR char89
ENCODING 89
SWIDTH 576 0
DWIDTH 6 0
BBX 5 8 0 0
BITMAP
88
88
50
50
20
20
20
20
ENDCHAR
STARTCHAR char90
ENCODING 90
SWIDTH 576 0
DWIDTH 6 0
BBX 4 8 1 0
BITMAP
F0
10
20
20
40
40
80
F0
ENDCHAR
STARTCHAR char91
ENCODING 91
SWIDTH 576 0
DWIDTH 6 0
BBX 3 9 1 -1
BITMAP
E0
80
80
80
80
80
80
80
E0
ENDCHAR
STARTCHAR char92
ENCODING 92
SWIDTH 576 0
DWIDTH 6 0
BBX 5 8 0 0
BITMAP
40
40
20
20
10
10
08
08
ENDCHAR
STARTCHAR char93
ENCODING 93
SWIDTH 576 0
DWIDTH 6 0
BBX 3 9 1 -1
BITMAP
E0
20
20
20
20
20
20
20
E0
ENDCHAR
STARTCHAR char94
ENCODING 94
SWIDTH 576 0
DWIDTH 6 0
BBX 5 3 0 5
BITMAP
20
50
88
ENDCHAR
STARTCHAR char95
ENCODING 95
SWIDTH 576 0
DWIDTH 6 0
BBX 5 1 0 0
BITMAP
F8
ENDCHAR
STARTCHAR char96
ENCODING 96
SWIDTH 576 0
DWIDTH 6 0
BBX 3 3 1 5
BITMAP
C0
40
20
ENDCHAR
STARTCHAR char97
ENCODING 97
SWIDTH 576 0
DWIDTH 6 0
BBX 4 6 1 0
BITMAP
70
90
90
90
90
70
ENDCHAR
STARTCHAR char98
ENCODING 98
SWIDTH 576 0
DWIDTH 6 0
BBX 4 8 1 0
BITMAP
80
80
E0
90
90
90
90
E0
ENDCHAR
STARTCHAR char99
ENCODING 99
SWIDTH 576 0
DWIDTH 6 0
BBX 5 6 0 0
BITMAP
30
48
40
40
48
30
ENDCHAR
STARTCHAR char100
ENCODING 100
SWIDTH 576 0
DWIDTH 6 0
BBX 4 8 1 0
BITMAP
10
10
70
90
90
90
90
70
ENDCHAR
STARTCHAR char101
ENCODING 101
SWIDTH 576 0
DWIDTH 6 0
BBX 4 6 1 0
BITMAP
60
90
F0
80
90
60
ENDCHAR
STARTCHAR char102
ENCODING 102
SWIDTH 576 0
DWIDTH 6 0
BBX 4 8 1 0
BITMAP
30
40
F0
40
40
40
40
40
ENDCHAR
STARTCHAR char103
ENCODING 103
SWIDTH 576 0
DWIDTH 6 0
BBX 4 8 1 -2
BITMAP
70
90
90
90
90
70
10
60
ENDCHAR
STARTCHAR char104
ENCODING 104
SWIDTH 576 0
DWIDTH 6 0
BBX 4 8 1 0
BITMAP
80
80
E0
90
90
90
90
90
ENDCHAR
STARTCHAR char105
ENCODING 105
SWIDTH 576 0
DWIDTH 6 0
BBX 3 9 1 0
BITMAP
40
40
00
C0
40
40
40
40
E0
ENDCHAR
STARTCHAR char106
ENCODING 106
SWIDTH 576 0
DWIDTH 6 0
BBX 3 11 1 -2
BITMAP
20
20
00
60
20
20
20
20
20
20
C0
ENDCHAR
STARTCHAR char107
ENCODING 107
SWIDTH 576 0
DWIDTH 6 0
BBX 4 8 1 0
BITMAP
80
80
90
A0
C0
A0
90
90
ENDCHAR
STARTCHAR char108
ENCODING 108
SWIDTH 576 0
DWIDTH 6 0
BBX 3 8 1 0
BITMAP
C0
40
40
40
40
40
40
E0
ENDCHAR
STARTCHAR char109
ENCODING 109
SWIDTH 576 0
DWIDTH 6 0
BBX 5 6 0 0
BITMAP
48
58
78
48
48
48
ENDCHAR
STARTCHAR char110
ENCODING 110
SWIDTH 576 0
DWIDTH 6 0
BBX 4 6 1 0
BITMAP
E0
90
90
90
90
90
ENDCHAR
STARTCHAR char111
ENCODING 111
SWIDTH 576 0
DWIDTH 6 0
BBX 4 6 1 0
BITMAP
60
90
90
90
90
60
ENDCHAR
STARTCHAR char112
ENCODING 112
SWIDTH 576 0
DWIDTH 6 0
BBX 4 8 1 -2
BITMAP
E0
90
90
90
90
E0
80
80
ENDCHAR
STARTCHAR char113
ENCODING 113
SWIDTH 576 0
DWIDTH 6 0
BBX 4 8 1 -2
BITMAP
70
90
90
90
90
70
10
10
ENDCHAR
STARTCHAR char114
ENCODING 114
SWIDTH 576 0
DWIDTH 6 0
BBX 4 6 1 0
BITMAP
B0
C0
80
80
80
80
ENDCHAR
STARTCHAR char115
ENCODING 115
SWIDTH 576 0
DWIDTH 6 0
BBX 4 6 1 0
BITMAP
70
80
60
10
10
E0
ENDCHAR
STARTCHAR char116
ENCODING 116
SWIDTH 576 0
DWIDTH 6 0
BBX 4 8 1 0
BITMAP
40
40
F0
40
40
40
40
30
ENDCHAR
STARTCHAR char117
ENCODING 117
SWIDTH 576 0
DWIDTH 6 0
BBX 5 6 0 0
BITMAP
48
48
48
48
48
38
ENDCHAR
STARTCHAR char118
ENCODING 118
SWIDTH 576 0
DWIDTH 6 0
BBX 5 6 0 0
BITMAP
48
48
48
48
30
30
ENDCHAR
STARTCHAR char119
ENCODING 119
SWIDTH 576 0
DWIDTH 6 0
BBX 4 6 1 0
BITMAP
90
90
90
B0
F0
90
ENDCHAR
STARTCHAR char120
ENCODING 120
SWIDTH 576 0
DWIDTH 6 0
BBX 4 6 1 0
BITMAP
90
90
60
60
90
90
ENDCHAR
STARTCHAR char121
ENCODING 121
SWIDTH 576 0
DWIDTH 6 0
BBX 4 8 1 -2
BITMAP
90
90
90
90
90
70
10
60
ENDCHAR
STARTCHAR char122
ENCODING 122
SWIDTH 576 0
DWIDTH 6 0
BBX 4 6 1 0
BITMAP
F0
10
20
40
80
F0
ENDCHAR
STARTCHAR char123
ENCODING 123
SWIDTH 576 0
DWIDTH 6 0
BBX 4 9 1 -1
BITMAP
30
40
40
40
C0
40
40
40
30
ENDCHAR
STARTCHAR char124
ENCODING 124
SWIDTH 576 0
DWIDTH 6 0
BBX 1 9 2 -1
BITMAP
80
80
80
80
80
80
80
80
80
ENDCHAR
STARTCHAR char125
ENCODING 125
SWIDTH 576 0
DWIDTH 6 0
BBX 4 9 1 -1
BITMAP
C0
20
20
20
30
20
20
20
C0
ENDCHAR
STARTCHAR char126
ENCODING 126
SWIDTH 576 0
DWIDTH 6 0
BBX 5 4 0 2
BITMAP
40
A8
A8
10
ENDCHAR
STARTCHAR char176
ENCODING 176
SWIDTH 576 0
DWIDTH 6 0
BBX 4 4 1 4
BITMAP
60
90
90
60
ENDCHAR
STARTCHAR char178
ENCODING 178
SWIDTH 576 0
DWIDTH 6 0
BBX 4 5 1 4
BITMAP
60
90
20
40
F0
ENDCHAR
STARTCHAR char179
ENCODING 179
SWIDTH 576 0
DWIDTH 6 0
BBX 4 5 1 4
BITMAP
E0
10
60
10
E0
ENDCHAR
STARTCHAR char185
ENCODING 185
SWIDTH 576 0
DWIDTH 6 0
BBX 3 5 1 4
BITMAP
40
C0
40
40
E0
ENDCHAR
STARTCHAR char192
ENCODING 192
SWIDTH 576 0
DWIDTH 6 0
BBX 4 9 1 0
BITMAP
40
20
60
60
90
90
F0
90
90
ENDCHAR
STARTCHAR char194
ENCODING 194
SWIDTH 576 0
DWIDTH 6 0
BBX 4 9 1 0
BITMAP
60
90
60
60
90
90
F0
90
90
ENDCHAR
STARTCHAR char196
ENCODING 196
SWIDTH 576 0
DWIDTH 6 0
BBX 4 9 1 0
BITMAP
50
00
60
60
90
90
F0
90
90
ENDCHAR
STARTCHAR char199
ENCODING 199
SWIDTH 576 0
DWIDTH 6 0
BBX 4 9 1 -2
BITMAP
60
90
80
80
80
90
60
40
80
ENDCHAR
STARTCHAR char200
ENCODING 200
SWIDTH 576 0
DWIDTH 6 0
BBX 4 9 1 0
BITMAP
40
20
F0
80
80
E0
80
80
F0
ENDCHAR
STARTCHAR char201
ENCODING 201
SWIDTH 576 0
DWIDTH 6 0
BBX 4 9 1 0
BITMAP
20
40
F0
80
80
E0
80
80
F0
ENDCHAR
STARTCHAR char202
ENCODING 202
SWIDTH 576 0
DWIDTH 6 0
BBX 4 9 1 0
BITMAP
60
90
F0
80
80
E0
80
80
F0
ENDCHAR
STARTCHAR char203
ENCODING 203
SWIDTH 576 0
DWIDTH 6 0
BBX 4 9 1 0
BITMAP
50
00
F0
80
80
E0
80
80
F0
ENDCHAR
STARTCHAR char206
ENCODING 206
SWIDTH 576 0
DWIDTH 6 0
BBX 4 9 1 0
BITMAP
40
A0
E0
40
40
40
40
40
E0
ENDCHAR
STARTCHAR char207
ENCODING 207
SWIDTH 576 0
DWIDTH 6 0
BBX 3 9 1 0
BITMAP
A0
00
E0
40
40
40
40
40
E0
ENDCHAR
STARTCHAR char212
ENCODING 212
SWIDTH 576 0
DWIDTH 6 0
BBX 4 9 1 0
BITMAP
60
90
60
90
90
90
90
90
60
ENDCHAR
STARTCHAR char217
ENCODING 217
SWIDTH 576 0
DWIDTH 6 0
BBX 4 9 1 0
BITMAP
40
20
90
90
90
90
90
90
60
ENDCHAR
STARTCHAR char219
ENCODING 219
SWIDTH 576 0
DWIDTH 6 0
BBX 4 9 1 0
BITMAP
20
50
00
90
90
90
90
90
60
ENDCHAR
STARTCHAR char220
ENCODING 220
SWIDTH 576 0
DWIDTH 6 0
BBX 4 9 1 0
BITMAP
50
00
90
90
90
90
90
90
60
ENDCHAR
STARTCHAR char224
ENCODING 224
SWIDTH 576 0
DWIDTH 6 0
BBX 4 9 1 0
BITMAP
40
20
00
70
90
90
90
90
70
ENDCHAR
STARTCHAR char226
ENCODING 226
SWIDTH 576 0
DWIDTH 6 0
BBX 4 9 1 0
BITMAP
20
50
00
70
90
90
90
90
70
ENDCHAR
STARTCHAR char228
ENCODING 228
SWIDTH 576 0
DWIDTH 6 0
BBX 5 9 0 0
BITMAP
28
28
00
38
48
48
48
48
38
ENDCHAR
STARTCHAR char231
ENCODING 231
SWIDTH 576 0
DWIDTH 6 0
BBX 4 8 1 -2
BITMAP
60
90
80
80
90
60
40
80
ENDCHAR
STARTCHAR char232
ENCODING 232
SWIDTH 576 0
DWIDTH 6 0
BBX 5 9 0 0
BITMAP
20
10
00
30
48
78
40
48
30
ENDCHAR
STARTCHAR char233
ENCODING 233
SWIDTH 576 0
DWIDTH 6 0
BBX 4 9 1 0
BITMAP
20
40
00
60
90
F0
80
90
60
ENDCHAR
STARTCHAR char234
ENCODING 234
SWIDTH 576 0
DWIDTH 6 0
BBX 4 9 1 0
BITMAP
20
50
00
60
90
F0
80
90
60
ENDCHAR
STARTCHAR char235
ENCODING 235
SWIDTH 576 0
DWIDTH 6 0
BBX 4 9 1 0
BITMAP
50
50
00
60
90
F0
80
90
60
ENDCHAR
STARTCHAR char238
ENCODING 238
SWIDTH 576 0
DWIDTH 6 0
BBX 4 9 0 0
BITMAP
20
50
00
60
20
20
20
20
70
ENDCHAR
STARTCHAR char239
ENCODING 239
SWIDTH 576 0
DWIDTH 6 0
BBX 4 9 0 0
BITMAP
50
50
00
60
20
20
20
20
70
ENDCHAR
STARTCHAR char244
ENCODING 244
SWIDTH 576 0
DWIDTH 6 0
BBX 4 9 1 0
BITMAP
20
50
00
60
90
90
90
90
60
ENDCHAR
STARTCHAR char246
ENCODING 246
SWIDTH 576 0
DWIDTH 6 0
BBX 5 9 0 0
BITMAP
28
28
00
30
48
48
48
48
30
ENDCHAR
STARTCHAR char249
ENCODING 249
SWIDTH 576 0
DWIDTH 6 0
BBX 4 9 1 0
BITMAP
40
20
00
90
90
90
90
90
70
ENDCHAR
STARTCHAR char251
ENCODING 251
SWIDTH 576 0
DWIDTH 6 0
BBX 4 9 1 0
BITMAP
20
50
00
90
90
90
90
90
70
ENDCHAR
STARTCHAR char252
ENCODING 252
SWIDTH 576 0
DWIDTH 6 0
BBX 5 9 0 0
BITMAP
28
28
00
48
48
48
48
48
38
ENDCHAR
STARTCHAR char255
ENCODING 255
SWIDTH 576 0
DWIDTH 6 0
BBX 5 11 0 -2
BITMAP
28
28
00
48
48
48
48
48
38
08
30
ENDCHAR
ENDFONT
